<svg xmlns="http://www.w3.org/2000/svg" width="109.656" height="36" viewBox="0 0 109.656 36"><g fill="#d31b82" color="#d31b82"><g transform="translate(0 7.24436) scale(0.2800001) translate(0.001, -11.588)"><svg width="100" height="76.826" x="-.001" y="11.588" viewBox="-0.001 11.588 100 76.826"><path d="M96.033,24.973V11.588h-3.84h-3.842H88.04l-5.45,1.816l-5.451-1.816H74.67l-7.446,1.861l-7.446-1.861h-2.47l-5.45,1.816 l-5.451-1.816h-4.153v13.354l-0.549,5.852H32.65V18.309c0-3.707-3.016-6.721-6.722-6.721H-0.001v11.524h21.127v7.682H9.602v11.524 h3.995l3.842,46.096h18.886h7.683h3.855h36.522h3.849h11.765L96.033,24.973z M3.841,19.27v-3.842H25.93 c1.588,0,2.881,1.292,2.881,2.881v12.485h-3.842V19.27H3.841z M36.647,84.572H20.975l-3.522-42.254h22.715L36.647,84.572z M44.176,38.476h-3.688H13.444v-3.84h7.683h11.524h8.696h2.829V38.476z M86.427,55.762l-1.799,28.811H48.185l1.76-21.126 l1.761-21.128h3.993l0,0V30.794H45.564l0.36-3.842h42.303L86.427,55.762z M88.352,23.112H46.097v-7.581l5.763,1.922l6.072-2.025 h1.373l7.919,1.98l7.918-1.98h1.373l6.075,2.025l5.762-1.922V23.112L88.352,23.112z"/></svg></g></g><path fill="#2b2d38" fill-rule="nonzero" d="M4.15 20.74L0 20.74L0 0.12L8.26 0.12L8.26 4.13L4.15 4.13L4.15 7.42L8.04 7.42L8.04 11.38L4.15 11.38L4.15 20.74ZM14.62 20.93Q9.36 20.93 9.36 15.48L9.36 15.48L9.36 8.42Q9.36 5.93 10.76 4.45Q12.17 2.98 14.62 2.98L14.62 2.98Q17.06 2.98 18.47 4.45Q19.87 5.93 19.87 8.42L19.87 8.42L19.87 15.48Q19.87 20.93 14.62 20.93L14.62 20.93ZM14.62 17.69Q15.12 17.69 15.36 17.33Q15.60 16.97 15.60 16.34L15.60 16.34L15.60 7.75Q15.60 6.22 14.62 6.22L14.62 6.22Q13.63 6.22 13.63 7.75L13.63 7.75L13.63 16.34Q13.63 16.97 13.87 17.33Q14.11 17.69 14.62 17.69L14.62 17.69ZM26.54 20.93Q21.29 20.93 21.29 15.48L21.29 15.48L21.29 8.42Q21.29 5.93 22.69 4.45Q24.10 2.98 26.54 2.98L26.54 2.98Q28.99 2.98 30.40 4.45Q31.80 5.93 31.80 8.42L31.80 8.42L31.80 15.48Q31.80 20.93 26.54 20.93L26.54 20.93ZM26.54 17.69Q27.05 17.69 27.29 17.33Q27.53 16.97 27.53 16.34L27.53 16.34L27.53 7.75Q27.53 6.22 26.54 6.22L26.54 6.22Q25.56 6.22 25.56 7.75L25.56 7.75L25.56 16.34Q25.56 16.97 25.80 17.33Q26.04 17.69 26.54 17.69L26.54 17.69ZM36.82 20.93Q35.28 20.93 34.50 20.20Q33.72 19.46 33.47 18.25Q33.22 17.04 33.22 15.14L33.22 15.14L33.26 7.22Q33.26 5.35 34.21 4.16Q35.16 2.98 36.89 2.98L36.89 2.98Q38.59 2.98 39.43 4.10L39.43 4.10L39.43 0L43.63 0L43.63 20.74L39.43 20.74L39.43 18.86Q39.07 19.90 38.46 20.41Q37.85 20.93 36.82 20.93L36.82 20.93ZM38.42 17.64Q39.05 17.64 39.24 17.03Q39.43 16.42 39.43 15.38L39.43 15.38L39.43 14.64L39.43 8.04Q39.43 7.27 39.22 6.74Q39 6.22 38.45 6.22L38.45 6.22Q37.82 6.22 37.62 6.71Q37.42 7.20 37.42 8.04L37.42 8.04L37.42 15.43Q37.42 17.64 38.42 17.64L38.42 17.64ZM49.58 20.74L45.31 20.74L45.31 0L49.58 0L49.58 20.74ZM56.38 20.93Q51.12 20.93 51.12 15.48L51.12 15.48L51.12 8.42Q51.12 5.93 52.52 4.45Q53.93 2.98 56.38 2.98L56.38 2.98Q58.82 2.98 60.23 4.45Q61.63 5.93 61.63 8.42L61.63 8.42L61.63 15.48Q61.63 20.93 56.38 20.93L56.38 20.93ZM56.38 17.69Q56.88 17.69 57.12 17.33Q57.36 16.97 57.36 16.34L57.36 16.34L57.36 7.75Q57.36 6.22 56.38 6.22L56.38 6.22Q55.39 6.22 55.39 7.75L55.39 7.75L55.39 16.34Q55.39 16.97 55.63 17.33Q55.87 17.69 56.38 17.69L56.38 17.69ZM67.92 23.30Q66.05 23.30 64.98 23.00Q63.91 22.70 62.88 21.86L62.88 21.86L64.32 19.44Q65.86 20.35 67.37 20.35L67.37 20.35Q68.35 20.35 68.86 19.73Q69.36 19.10 69.36 18.02L69.36 18.02L69.36 17.06Q68.86 18.86 66.70 18.86L66.70 18.86Q64.90 18.86 64.04 17.64Q63.19 16.42 63.19 14.38L63.19 14.38L63.19 7.78Q63.19 5.45 63.97 4.21Q64.75 2.98 66.70 2.98L66.70 2.98Q67.82 2.98 68.48 3.54Q69.14 4.10 69.36 5.14L69.36 5.14L69.36 3.17L73.66 3.17L73.66 17.76Q73.66 20.71 72.29 22.01Q70.92 23.30 67.92 23.30L67.92 23.30ZM68.38 15.70Q69.36 15.70 69.36 13.92L69.36 13.92L69.36 7.66Q69.36 7.13 69.07 6.65Q68.78 6.17 68.35 6.17L68.35 6.17Q67.80 6.17 67.61 6.56Q67.42 6.96 67.42 7.66L67.42 7.66L67.42 13.92Q67.42 14.71 67.61 15.20Q67.80 15.70 68.38 15.70L68.38 15.70Z" transform="translate(36, 7.632)"/></svg>